<?xml version="1.0" encoding="UTF-8"?><svg id="Layer_2" xmlns="http://www.w3.org/2000/svg" viewBox="0 0 217.694 163.1202"><g id="Components"><g id="_789b0bb0-e438-46e5-93cc-f5962b6fb3de_5"><path d="M67.622,45.5181c2.1173,21.383,20.1286,37.3499,41.1793,37.3499h0c1.3647,0,2.7403-.0687,4.1273-.2038h0c21.3787-2.122,37.3503-20.1317,37.3503-41.18h0c0-1.3648-.0664-2.7441-.2007-4.1289h0C147.9554,15.9673,129.9422,0,108.8938,0h0c-1.3663,0-2.7387.0679-4.1269.2058h0c-21.3826,2.1188-37.3518,20.1294-37.3518,41.1769h0c0,1.3667.0679,2.7449.2057,4.1355h.0012ZM108.8013,80.5221c-19.8519,0-36.8531-15.0668-38.8469-35.2371l-1.1641.1162,1.1641-.1162h0c-.1266-1.3103-.1895-2.6136-.1937-3.9024h0c0-19.848,15.0656-36.8465,35.2355-38.8412h0c1.3103-.1316,2.6102-.1945,3.8977-.1945h0c19.8503,0,36.8524,15.0657,38.8454,35.2379h0c.1289,1.3084.1952,2.6109.1952,3.8993h0c0,19.848-15.0707,36.845-35.2359,38.8442h0c-1.3052.1304-2.6083.1922-3.8973.1937h0Z" style="fill:#fff; stroke-width:0px;"/><path d="M140.8932,55.8775c-.6036.3593-1.2466.6634-1.9282.8842-7.1479,2.31-15.506-4.2018-18.6662-14.5477-.8244-2.7063-1.2042-5.4013-1.2011-7.9556h5.2196s3.2004-5.0962,3.2004-5.0962h-7.8511c1.1294-4.841,3.8881-8.5812,7.8596-9.8645,3.3532-1.0853,6.968-.2088,10.193,2.0833,3.3154,4.7611,5.5006,10.4068,6.1119,16.5917.6268,6.3536-.4824,12.4759-2.9379,17.9048ZM102.9463,11.5875c3.8279-3.5994,9.1949-4.8885,14.955-4.1247,6.8761,1.8329,12.985,5.7175,17.5624,11.0193-3.7252-2.6962-7.9244-3.7294-11.8148-2.4709-5.0405,1.6299-8.3721,6.7191-9.3431,13.151h-5.039s-3.2011,5.0962-3.2011,5.0962h7.9761c.0957,2.5793.5233,5.2617,1.3463,7.9556,2.548,8.3497,8.0626,14.4968,13.9591,16.4721-7.1864-.6372-15.1031-4.55-21.4829-11.3296-11.1332-11.8387-13.3389-27.8535-4.9178-35.7689ZM136.6068,62.9891c-5.709,7.3493-14.3011,12.4393-24.2949,13.4292-19.3231,1.9109-36.5336-12.1992-38.4456-31.5207-.1216-1.2061-.1764-2.4053-.1756-3.5925,3.2,10.4902,13.9086,20.2908,28.4177,24.6358,13.0186,3.9009,25.8924,2.445,34.4984-2.9517ZM74.8161,32.5914c3.4632-13.3234,14.6106-23.8222,28.8716-25.9264-2.3605.7742-4.5075,2.0004-6.3319,3.7133-9.1305,8.582-6.7399,25.9514,5.3327,38.7875,8.9016,9.4628,20.5797,13.8163,29.7616,12.0143-8.0996,2.9012-18.1908,3.1945-28.3598.1466-16.1923-4.8476-27.6188-16.6372-29.2742-28.7353Z" style="fill:#fff; stroke-width:0px;"/><path d="M41.98,156.4132v2.3105c0,2.7813-1.3906,4.3711-4.0742,4.3711s-4.0742-1.5898-4.0742-4.3711v-9.043c0-2.7822,1.3916-4.3721,4.0742-4.3721s4.0742,1.5898,4.0742,4.3721v1.6895h-2.584v-1.8633c0-1.2422-.5459-1.7139-1.416-1.7139-.8691,0-1.416.4717-1.416,1.7139v9.3906c0,1.2412.5469,1.6885,1.416,1.6885.8701,0,1.416-.4473,1.416-1.6885v-2.4844h2.584Z" style="fill:#fff; stroke-width:0px;"/><path d="M47.5943,157.1339l-3.4521-11.626h2.8555l2.0879,7.9238,2.0859-7.9238h2.6084l-3.4531,11.626v5.7627h-2.7324v-5.7627Z" style="fill:#fff; stroke-width:0px;"/><path d="M64.6011,149.8048v2.2607c0,2.7822-1.3418,4.2979-4.0742,4.2979h-1.291v6.5332h-2.7324v-17.3887h4.0234c2.7324,0,4.0742,1.5146,4.0742,4.2969ZM59.2359,147.9913v5.8877h1.291c.8691,0,1.3418-.3975,1.3418-1.6396v-2.6084c0-1.2412-.4727-1.6396-1.3418-1.6396h-1.291Z" style="fill:#fff; stroke-width:0px;"/><path d="M73.1841,162.8966c-.1494-.4473-.249-.7207-.249-2.1367v-2.7324c0-1.6143-.5459-2.2109-1.7871-2.2109h-.9453v7.0801h-2.7324v-17.3887h4.124c2.832,0,4.0498,1.3164,4.0498,3.999v1.3662c0,1.7891-.5723,2.9561-1.7891,3.5273,1.3662.5713,1.8135,1.8887,1.8135,3.7021v2.6826c0,.8447.0244,1.4658.2979,2.1113h-2.7822ZM70.2027,147.9913v5.3418h1.0684c1.0195,0,1.6406-.4473,1.6406-1.8389v-1.7139c0-1.2422-.4229-1.7891-1.3916-1.7891h-1.3174Z" style="fill:#fff; stroke-width:0px;"/><path d="M81.6187,152.836h3.75v2.4844h-3.75v5.0918h4.7188v2.4844h-7.4512v-17.3887h7.4512v2.4834h-4.7188v4.8447Z" style="fill:#fff; stroke-width:0px;"/><path d="M93.1948,145.3087c2.6582,0,4.0244,1.5898,4.0244,4.3721v.5469h-2.583v-.7207c0-1.2422-.4971-1.7139-1.3672-1.7139-.8691,0-1.3652.4717-1.3652,1.7139,0,3.5771,5.3398,4.248,5.3398,9.2168,0,2.7813-1.3906,4.3711-4.0732,4.3711s-4.0742-1.5898-4.0742-4.3711v-1.0684h2.583v1.2422c0,1.2412.5469,1.6885,1.416,1.6885.8701,0,1.416-.4473,1.416-1.6885,0-3.5771-5.3398-4.248-5.3398-9.2168,0-2.7822,1.3652-4.3721,4.0234-4.3721Z" style="fill:#fff; stroke-width:0px;"/><path d="M104.0913,145.3087c2.6582,0,4.0234,1.5898,4.0234,4.3721v.5469h-2.583v-.7207c0-1.2422-.4971-1.7139-1.3662-1.7139s-1.3662.4717-1.3662,1.7139c0,3.5771,5.3408,4.248,5.3408,9.2168,0,2.7813-1.3906,4.3711-4.0742,4.3711s-4.0742-1.5898-4.0742-4.3711v-1.0684h2.584v1.2422c0,1.2412.5469,1.6885,1.416,1.6885s1.416-.4473,1.416-1.6885c0-3.5771-5.3408-4.248-5.3408-9.2168,0-2.7822,1.3662-4.3721,4.0244-4.3721Z" style="fill:#fff; stroke-width:0px;"/><path d="M124.4614,156.4132v2.3105c0,2.7813-1.3916,4.3711-4.0732,4.3711-2.6836,0-4.0742-1.5898-4.0742-4.3711v-9.043c0-2.7822,1.3906-4.3721,4.0742-4.3721,2.6816,0,4.0732,1.5898,4.0732,4.3721v1.6895h-2.583v-1.8633c0-1.2422-.5469-1.7139-1.416-1.7139s-1.416.4717-1.416,1.7139v9.3906c0,1.2412.5469,1.6885,1.416,1.6885s1.416-.4473,1.416-1.6885v-2.4844h2.583Z" style="fill:#fff; stroke-width:0px;"/><path d="M136.4351,162.8966h-2.7578l-.4707-3.1553h-3.3535l-.4727,3.1553h-2.5088l2.7822-17.3887h4l2.7812,17.3887ZM130.2007,157.3819h2.6328l-1.3164-8.7939-1.3164,8.7939Z" style="fill:#fff; stroke-width:0px;"/><path d="M145.0464,157.8536l1.8633-12.3457h3.7998v17.3887h-2.583v-12.4707l-1.8887,12.4707h-2.583l-2.0371-12.2969v12.2969h-2.3848v-17.3887h3.8008l2.0127,12.3457Z" style="fill:#fff; stroke-width:0px;"/><path d="M162.062,149.8048v2.2607c0,2.7822-1.3408,4.2979-4.0732,4.2979h-1.292v6.5332h-2.7324v-17.3887h4.0244c2.7324,0,4.0732,1.5146,4.0732,4.2969ZM156.6968,147.9913v5.8877h1.292c.8691,0,1.3408-.3975,1.3408-1.6396v-2.6084c0-1.2412-.4717-1.6396-1.3408-1.6396h-1.292Z" style="fill:#fff; stroke-width:0px;"/><path d="M167.6031,145.5079v13.4141c0,1.2422.5459,1.6895,1.416,1.6895.8691,0,1.416-.4473,1.416-1.6895v-13.4141h2.583v13.2402c0,2.7822-1.3916,4.3721-4.0742,4.3721s-4.0732-1.5898-4.0732-4.3721v-13.2402h2.7324Z" style="fill:#fff; stroke-width:0px;"/><path d="M180.0113,145.3087c2.6582,0,4.0234,1.5898,4.0234,4.3721v.5469h-2.583v-.7207c0-1.2422-.4971-1.7139-1.3662-1.7139s-1.3662.4717-1.3662,1.7139c0,3.5771,5.3408,4.248,5.3408,9.2168,0,2.7813-1.3906,4.3711-4.0742,4.3711s-4.0742-1.5898-4.0742-4.3711v-1.0684h2.584v1.2422c0,1.2412.5469,1.6885,1.416,1.6885s1.416-.4473,1.416-1.6885c0-3.5771-5.3408-4.248-5.3408-9.2168,0-2.7822,1.3662-4.3721,4.0244-4.3721Z" style="fill:#fff; stroke-width:0px;"/><path d="M2.1598,116.6967v-6.8768s7.4484,0,7.4484,0v7.1392s2.1605-.2624,2.1605-.2624v-15.4732s-2.1605.3538-2.1605.3538v6.2588s-7.4484,0-7.4484,0v-6.6126s-2.1598.3538-2.1598.3538v15.3818s2.1598-.2624,2.1598-.2624Z" style="fill:#fff; stroke-width:0px;"/><path d="M17.8344,109.1358c0,4.4515,3.5703,7.9109,7.9343,7.9109s7.9346-3.4593,7.9346-7.9109c0-4.4527-3.5698-7.9122-7.9346-7.9122-4.364,0-7.9343,3.4596-7.9343,7.9122ZM19.9952,109.1358c0-3.1524,2.5992-5.9279,5.7736-5.9279,3.174,0,5.7752,2.7755,5.7752,5.9279s-2.6012,5.9293-5.7752,5.9293c-3.1744,0-5.7736-2.7775-5.7736-5.9293Z" style="fill:#fff; stroke-width:0px;"/><path d="M48.2332,101.5774v10.4238c0,2.2264-1.4767,3.064-3.3288,3.064-1.9176,0-3.0419-1.1249-3.0419-3.064v-10.7776s-2.1588.3538-2.1588.3538v9.2776c0,4.3405,1.2116,6.1918,5.3776,6.1918,3.8125,0,5.3125-1.5402,5.3125-6.1918v-9.6313s-2.1608.3538-2.1608.3538Z" style="fill:#fff; stroke-width:0px;"/><path d="M56.5229,114.6025c1.3671,1.4552,2.6241,2.4442,4.6969,2.4442,2.6211,0,4.6917-1.9176,4.6917-4.6047,0-5.2241-6.918-3.812-6.918-6.9191,0-1.4322.9904-2.3149,2.3792-2.3149,1.2564,0,2.094.8145,2.9087,1.6752l1.4549-1.4543c-.9916-1.3232-2.5778-2.2053-4.2535-2.2053-2.7336,0-4.6513,1.6321-4.6513,4.2993,0,5.3102,6.9216,3.3925,6.9216,6.8984,0,1.8729-1.1691,2.644-2.7552,2.644-1.2119,0-2.2704-.8156-2.8865-1.785l-1.5885,1.3223Z" style="fill:#fff; stroke-width:0px;"/><path d="M74.5563,103.5609v13.3983s2.1591-.2624,2.1591-.2624v-13.1359s3.5272,0,3.5272,0v-1.9835h-8.9259s-.6842,1.9835-.6842,1.9835h3.9237Z" style="fill:#fff; stroke-width:0px;"/><path d="M85.138,109.1358c0,4.4515,3.5712,7.9109,7.9348,7.9109,4.3643,0,7.9337-3.4593,7.9337-7.9109,0-4.4527-3.5694-7.9122-7.9337-7.9122-4.3637,0-7.9348,3.4596-7.9348,7.9122ZM87.2988,109.1358c0-3.1524,2.5995-5.9279,5.7741-5.9279,3.174,0,5.7746,2.7755,5.7746,5.9279s-2.6006,5.9293-5.7746,5.9293-5.7741-2.7775-5.7741-5.9293Z" style="fill:#fff; stroke-width:0px;"/><path d="M109.1903,116.6967v-10.2265s9.6967,10.5765,9.6967,10.5765h.0416v-15.4693s-2.1578.3517-2.1578.3517v9.8753s-9.6979-10.5808-9.6979-10.5808h-.0439v15.7356s2.1613-.2624,2.1613-.2624Z" style="fill:#fff; stroke-width:0px;"/><path d="M124.9516,107.2419c.5501-.7292,2.0952-2.6232,2.0952-3.5282,0-1.1884-.7937-1.8295-1.7432-2.4902l-1.322,1.6541c.5734.2864,1.0807.4847,1.0807,1.213s-.9477,1.8263-1.2553,2.3116l1.1445.8397Z" style="fill:#fff; stroke-width:0px;"/><path d="M131.2787,114.6025c1.3671,1.4552,2.6229,2.4442,4.6941,2.4442,2.6235,0,4.6957-1.9176,4.6957-4.6047,0-5.2241-6.921-3.812-6.921-6.9191,0-1.4322.9922-2.3149,2.3804-2.3149,1.2553,0,2.0952.8145,2.907,1.6752l1.4573-1.4543c-.9928-1.3232-2.5778-2.2053-4.253-2.2053-2.7347,0-4.653,1.6321-4.653,4.2993,0,5.3102,6.9197,3.3925,6.9197,6.8984,0,1.8729-1.1662,2.644-2.7529,2.644-1.2125,0-2.2709-.8156-2.8877-1.785l-1.5867,1.3223Z" style="fill:#fff; stroke-width:0px;"/><path d="M159.2313,116.6967v-6.8768s4.629,0,4.629,0v-1.9838h-4.629s0-4.2753,0-4.2753h6.0166s-.3737-1.9835-.3737-1.9835h-7.8026v15.3818s2.1596-.2624,2.1596-.2624Z" style="fill:#fff; stroke-width:0px;"/><path d="M172.8782,116.6967v-15.4732s-2.1596.3538-2.1596.3538v15.2969s2.1596-.1775,2.1596-.1775Z" style="fill:#fff; stroke-width:0px;"/><path d="M181.6307,116.6967v-7.34s.0451,0,.0451,0l5.2645,7.69,2.4249-.6153-4.5628-6.3255c2.0723-.4633,3.3533-1.6971,3.3533-3.9449,0-3.4403-2.7125-4.5836-4.9611-4.5836h-3.7252v15.3818s2.1613-.2624,2.1613-.2624ZM181.6307,103.5609h1.5417c1.6752,0,2.8209.8133,2.8209,2.6001,0,1.652-1.346,2.7098-2.8209,2.7098h-1.5417s0-5.3099,0-5.3099Z" style="fill:#fff; stroke-width:0px;"/><path d="M193.9761,114.6025c1.3665,1.4552,2.6223,2.4442,4.6934,2.4442,2.6229,0,4.6957-1.9176,4.6957-4.6047,0-5.2241-6.9227-3.812-6.9227-6.9191,0-1.4322.9935-2.3149,2.381-2.3149,1.2558,0,2.0957.8145,2.9087,1.6752l1.4562-1.4543c-.9928-1.3232-2.5778-2.2053-4.2548-2.2053-2.7325,0-4.6489,1.6321-4.6489,4.2993,0,5.3102,6.9198,3.3925,6.9198,6.8984,0,1.8729-1.168,2.644-2.7547,2.644-1.213,0-2.2703-.8156-2.8871-1.785l-1.5867,1.3223Z" style="fill:#fff; stroke-width:0px;"/><path d="M212.01,103.5609v13.3983s2.1579-.2624,2.1579-.2624v-13.1359s3.5261,0,3.5261,0v-1.9835h-8.9253s-.6812,1.9835-.6812,1.9835h3.9226Z" style="fill:#fff; stroke-width:0px;"/><path d="M24.5755,123.9799v7.2566h1.8195c1.5443,0,2.2843-.7088,2.2843-1.9675,0-.8781-.3702-1.3964-1.1635-1.7883.6138-.3057.9524-.8247.9524-1.5967,0-1.322-.8147-1.9042-2.0523-1.9042h-1.8404ZM25.2315,124.6359h1.2691c.7297,0,1.3117.4452,1.3117,1.2593s-.529,1.3326-1.5868,1.3326h-.994s0-2.5919,0-2.5919ZM25.2315,127.8832h1.3219c.9097,0,1.4067.5823,1.4067,1.3859,0,.6981-.3171,1.312-1.618,1.312h-1.1106s0-2.6979,0-2.6979Z" style="fill:#fff; stroke-width:0px;"/><path d="M41.6623,128.3804l1.4906,3.0037.635-.1476-3.6909-7.4253h-.0214s-3.6915,7.4253-3.6915,7.4253l.6981.1692,1.4705-3.0253h3.1096ZM41.2921,127.7244h-2.4223s1.2163-2.4213,1.2163-2.4213l1.206,2.4213Z" style="fill:#fff; stroke-width:0px;"/><path d="M52.3606,128.8033h.4973c1.6822,0,2.634-.8563,2.634-2.4114,0-1.5545-.9518-2.412-2.422-2.412h-1.3647v7.3409s.6554-.0843.6554-.0843v-2.4332ZM52.3606,124.6359h.8142c.9629,0,1.5979.6771,1.5979,1.756s-.635,1.756-1.8088,1.756h-.6033s0-3.512,0-3.512Z" style="fill:#fff; stroke-width:0px;"/><path d="M65.799,124.6359h1.9141v-.656h-4.4323s-.1476.656-.1476.656h2.009s0,6.6849,0,6.6849l.6567-.0843v-6.6006Z" style="fill:#fff; stroke-width:0px;"/><path d="M76.0726,131.3208l.656-.0843v-7.4253s-.656.1687-.656.1687v7.3409Z" style="fill:#fff; stroke-width:0px;"/><path d="M85.3417,130.1365c.5078.8668,1.3115,1.2692,2.2954,1.2692,1.2799,0,2.2745-.8364,2.2745-2.1578,0-2.5701-3.7229-1.6184-3.7229-3.4271,0-.9202.7087-1.3542,1.5546-1.3542.6343,0,1.0578.2965,1.5124.6982l.4024-.4862c-.4762-.5294-1.1955-.8674-1.9147-.8674-1.2371,0-2.2744.7298-2.2744,2.0524,0,2.5274,3.7229,1.4169,3.7229,3.4482,0,.9202-.6555,1.4379-1.5434,1.4379-.8253,0-1.3536-.328-1.7988-1.015l-.5078.4018Z" style="fill:#fff; stroke-width:0px;"/><path d="M100.3563,124.6359h1.9141v-.656h-4.4323s-.1481.656-.1481.656h2.0095s0,6.6849,0,6.6849l.6567-.0843v-6.6006Z" style="fill:#fff; stroke-width:0px;"/><path d="M125.2725,130.263c-.2952.2332-.8347.4868-1.5124.4868-1.6717,0-2.9298-1.4069-2.9298-3.1413,0-1.7349,1.2581-3.1418,2.9298-3.1418.6243,0,1.2171.2542,1.5124.4868l-.0955-.8042c-.4112-.1898-.9085-.338-1.3642-.338-1.9769,0-3.7012,1.6394-3.7012,3.7972,0,2.1579,1.7243,3.7973,3.7012,3.7973.4556,0,.953-.1482,1.3642-.3386l.0955-.8042Z" style="fill:#fff; stroke-width:0px;"/><path d="M134.5639,131.2365v-3.3534s4.168,0,4.168,0v3.4377s.6555-.0843.6555-.0843v-7.4253s-.6555.1687-.6555.1687v3.2479s-4.168,0-4.168,0v-3.4165s-.6555.1687-.6555.1687v7.3409s.6555-.0843.6555-.0843Z" style="fill:#fff; stroke-width:0px;"/><path d="M153.3652,123.8112l-.6555.1687v4.7819c0,1.0461-.6988,1.988-1.8819,1.988-1.2804,0-1.8832-1.015-1.8832-1.7871v-5.1514s-.6554.1687-.6554.1687v4.9611c0,1.5439.9834,2.4647,2.5385,2.4647,1.5539,0,2.5374-.9208,2.5374-2.4647v-5.1298Z" style="fill:#fff; stroke-width:0px;"/><path d="M162.8369,131.2365v-3.4588s.0416,0,.0416,0l2.7078,3.5431.6672-.3491-2.2211-2.7921c1.0789-.1904,1.7244-.9835,1.7244-2.073,0-1.2692-.9103-2.1267-2.1169-2.1267h-1.4584v7.3409s.6554-.0843.6554-.0843ZM162.8369,124.6359h.9208c.7714,0,1.2787.7614,1.2787,1.4707s-.4234,1.5439-1.2903,1.5439h-.9091s0-3.0147,0-3.0147Z" style="fill:#fff; stroke-width:0px;"/><path d="M179.0042,130.263c-.297.2332-.8365.4868-1.513.4868-1.6711,0-2.9298-1.4069-2.9298-3.1413,0-1.7349,1.2587-3.1418,2.9298-3.1418.6232,0,1.216.2542,1.513.4868l-.0961-.8042c-.413-.1898-.9096-.338-1.3642-.338-1.9786,0-3.7023,1.6394-3.7023,3.7972,0,2.1579,1.7237,3.7973,3.7023,3.7973.4546,0,.9512-.1482,1.3642-.3386l.0961-.8042Z" style="fill:#fff; stroke-width:0px;"/><path d="M188.2955,131.2365v-3.3534s4.1675,0,4.1675,0v3.4377s.6555-.0843.6555-.0843v-7.4253s-.6555.1687-.6555.1687v3.2479s-4.1675,0-4.1675,0v-3.4165s-.656.1687-.656.1687v7.3409s.656-.0843.656-.0843Z" style="fill:#fff; stroke-width:0px;"/><rect x="24.8599" y="137.545" width="167.9746" height=".5645" style="fill:#fff; stroke-width:0px;"/></g></g></svg>