<svg xmlns="http://www.w3.org/2000/svg" xmlns:xlink="http://www.w3.org/1999/xlink" width="480" zoomAndPan="magnify" viewBox="0 0 360 72" height="96" preserveAspectRatio="xMidYMid meet" version="1.0"><defs><clipPath id="7c0b23cfc1"><path d="M 0.484375 14.664062 L 32.226562 14.664062 L 32.226562 57.691406 L 0.484375 57.691406 Z M 0.484375 14.664062 " clip-rule="nonzero"/></clipPath><clipPath id="e4be994c55"><path d="M 28.886719 28.003906 C 28.886719 21.199219 23.617188 17.644531 15.894531 17.644531 L 3.757812 17.644531 L 3.757812 38.664062 L 15.527344 38.664062 C 23.496094 38.664062 28.886719 34.5 28.886719 28.125 Z M 15.339844 41.609375 L 3.757812 41.609375 L 3.757812 57.605469 L 0.570312 57.605469 L 0.570312 14.703125 L 16.140625 14.703125 C 25.578125 14.703125 32.074219 19.542969 32.074219 27.816406 L 32.074219 27.9375 C 32.074219 36.949219 24.289062 41.605469 15.339844 41.605469 Z M 15.339844 41.609375 " clip-rule="nonzero"/></clipPath><clipPath id="c33c548838"><path d="M 0.484375 0.664062 L 32.160156 0.664062 L 32.160156 43.691406 L 0.484375 43.691406 Z M 0.484375 0.664062 " clip-rule="nonzero"/></clipPath><clipPath id="ff4680e086"><path d="M 28.886719 14.003906 C 28.886719 7.199219 23.617188 3.644531 15.894531 3.644531 L 3.757812 3.644531 L 3.757812 24.664062 L 15.527344 24.664062 C 23.496094 24.664062 28.886719 20.5 28.886719 14.125 Z M 15.339844 27.609375 L 3.757812 27.609375 L 3.757812 43.605469 L 0.570312 43.605469 L 0.570312 0.703125 L 16.140625 0.703125 C 25.578125 0.703125 32.074219 5.542969 32.074219 13.816406 L 32.074219 13.9375 C 32.074219 22.949219 24.289062 27.605469 15.339844 27.605469 Z M 15.339844 27.609375 " clip-rule="nonzero"/></clipPath><clipPath id="18bcb5bebd"><rect x="0" width="33" y="0" height="44"/></clipPath><clipPath id="c3960f724e"><path d="M 30.109375 14.308594 L 73.136719 14.308594 L 73.136719 57.691406 L 30.109375 57.691406 Z M 30.109375 14.308594 " clip-rule="nonzero"/></clipPath><clipPath id="609f773e31"><path d="M 51.5625 17.890625 L 40.226562 42.710938 L 62.839844 42.710938 Z M 69.644531 57.605469 L 64.1875 45.59375 L 38.878906 45.59375 L 33.421875 57.605469 L 30.113281 57.605469 L 50.09375 14.394531 L 53.15625 14.394531 L 73.136719 57.605469 Z M 69.644531 57.605469 " clip-rule="nonzero"/></clipPath><clipPath id="60f28eee43"><path d="M 0.109375 0.308594 L 43.136719 0.308594 L 43.136719 43.691406 L 0.109375 43.691406 Z M 0.109375 0.308594 " clip-rule="nonzero"/></clipPath><clipPath id="e9487f15b9"><path d="M 21.5625 3.890625 L 10.226562 28.710938 L 32.839844 28.710938 Z M 39.644531 43.605469 L 34.1875 31.59375 L 8.878906 31.59375 L 3.421875 43.605469 L 0.113281 43.605469 L 20.09375 0.394531 L 23.15625 0.394531 L 43.136719 43.605469 Z M 39.644531 43.605469 " clip-rule="nonzero"/></clipPath><clipPath id="17c3d38996"><rect x="0" width="44" y="0" height="44"/></clipPath><clipPath id="869476781e"><path d="M 70.195312 14.703125 L 103.292969 14.703125 L 103.292969 17.644531 L 70.195312 17.644531 Z M 85.152344 17.644531 L 88.335938 17.644531 L 88.335938 57.605469 L 85.152344 57.605469 Z M 85.152344 17.644531 " clip-rule="nonzero"/></clipPath><clipPath id="8277217e8f"><path d="M 0.195312 0.703125 L 33.292969 0.703125 L 33.292969 3.644531 L 0.195312 3.644531 Z M 15.152344 3.644531 L 18.335938 3.644531 L 18.335938 43.605469 L 15.152344 43.605469 Z M 15.152344 3.644531 " clip-rule="nonzero"/></clipPath><clipPath id="680b059c9e"><rect x="0" width="34" y="0" height="44"/></clipPath><clipPath id="7967a9f306"><path d="M 140.1875 14.703125 L 143.375 14.703125 L 143.375 34.558594 L 140.1875 34.558594 Z M 109.542969 14.703125 L 112.730469 14.703125 L 112.730469 34.558594 L 109.542969 34.558594 Z M 109.542969 34.558594 L 143.375 34.558594 L 143.375 37.5 L 109.542969 37.5 Z M 109.542969 37.5 L 112.730469 37.5 L 112.730469 57.601562 L 109.542969 57.601562 Z M 140.1875 37.5 L 143.375 37.5 L 143.375 57.601562 L 140.1875 57.601562 Z M 140.1875 37.5 " clip-rule="nonzero"/></clipPath><clipPath id="297cfdae12"><path d="M 31.1875 0.703125 L 34.375 0.703125 L 34.375 20.558594 L 31.1875 20.558594 Z M 0.542969 0.703125 L 3.730469 0.703125 L 3.730469 20.558594 L 0.542969 20.558594 Z M 0.542969 20.558594 L 34.375 20.558594 L 34.375 23.5 L 0.542969 23.5 Z M 0.542969 23.5 L 3.730469 23.5 L 3.730469 43.601562 L 0.542969 43.601562 Z M 31.1875 23.5 L 34.375 23.5 L 34.375 43.601562 L 31.1875 43.601562 Z M 31.1875 23.5 " clip-rule="nonzero"/></clipPath><clipPath id="8cc7ef44bd"><rect x="0" width="35" y="0" height="44"/></clipPath><clipPath id="4f78d3e51c"><path d="M 152.691406 14.703125 L 193.140625 14.703125 L 193.140625 57.679688 L 152.691406 57.679688 Z M 152.691406 14.703125 " clip-rule="nonzero"/></clipPath><clipPath id="3c3945a3be"><path d="M 189.953125 57.601562 L 189.953125 20.339844 L 172.976562 45.039062 L 172.730469 45.039062 L 155.753906 20.339844 L 155.753906 57.601562 L 152.691406 57.601562 L 152.691406 14.703125 L 155.695312 14.703125 L 172.914062 40.074219 L 190.136719 14.703125 L 193.140625 14.703125 L 193.140625 57.601562 Z M 189.953125 57.601562 " clip-rule="nonzero"/></clipPath><clipPath id="ebacd401ad"><path d="M 0.691406 0.703125 L 41.140625 0.703125 L 41.140625 43.679688 L 0.691406 43.679688 Z M 0.691406 0.703125 " clip-rule="nonzero"/></clipPath><clipPath id="07f5bb7515"><path d="M 37.953125 43.601562 L 37.953125 6.339844 L 20.976562 31.039062 L 20.730469 31.039062 L 3.753906 6.339844 L 3.753906 43.601562 L 0.691406 43.601562 L 0.691406 0.703125 L 3.695312 0.703125 L 20.914062 26.074219 L 38.136719 0.703125 L 41.140625 0.703125 L 41.140625 43.601562 Z M 37.953125 43.601562 " clip-rule="nonzero"/></clipPath><clipPath id="f2c6a1bd18"><rect x="0" width="42" y="0" height="44"/></clipPath><clipPath id="1d6dc958bc"><path d="M 198.777344 14.394531 L 241.804688 14.394531 L 241.804688 57.757812 L 198.777344 57.757812 Z M 198.777344 14.394531 " clip-rule="nonzero"/></clipPath><clipPath id="70340bc87a"><path d="M 220.230469 17.890625 L 208.890625 42.710938 L 231.507812 42.710938 Z M 238.308594 57.605469 L 232.855469 45.59375 L 207.542969 45.59375 L 202.089844 57.605469 L 198.777344 57.605469 L 218.757812 14.394531 L 221.824219 14.394531 L 241.804688 57.605469 Z M 238.308594 57.605469 " clip-rule="nonzero"/></clipPath><clipPath id="27c11846aa"><path d="M 0.777344 0.394531 L 43.804688 0.394531 L 43.804688 43.757812 L 0.777344 43.757812 Z M 0.777344 0.394531 " clip-rule="nonzero"/></clipPath><clipPath id="f84c851680"><path d="M 22.230469 3.890625 L 10.890625 28.710938 L 33.507812 28.710938 Z M 40.308594 43.605469 L 34.855469 31.59375 L 9.542969 31.59375 L 4.089844 43.605469 L 0.777344 43.605469 L 20.757812 0.394531 L 23.824219 0.394531 L 43.804688 43.605469 Z M 40.308594 43.605469 " clip-rule="nonzero"/></clipPath><clipPath id="20c50f6f21"><rect x="0" width="44" y="0" height="44"/></clipPath><clipPath id="e7e2168fa7"><path d="M 247.441406 14.703125 L 283.113281 14.703125 L 283.113281 57.621094 L 247.441406 57.621094 Z M 247.441406 14.703125 " clip-rule="nonzero"/></clipPath><clipPath id="9405aeea2a"><path d="M 278.941406 57.601562 L 261.292969 35.90625 L 250.628906 46.695312 L 250.628906 57.601562 L 247.441406 57.601562 L 247.441406 14.703125 L 250.628906 14.703125 L 250.628906 42.894531 L 277.964844 14.703125 L 282.316406 14.703125 L 263.5625 33.640625 L 283.113281 57.601562 Z M 278.941406 57.601562 " clip-rule="nonzero"/></clipPath><clipPath id="e182e0ede8"><path d="M 0.441406 0.703125 L 36.113281 0.703125 L 36.113281 43.621094 L 0.441406 43.621094 Z M 0.441406 0.703125 " clip-rule="nonzero"/></clipPath><clipPath id="9f34ac7fac"><path d="M 31.941406 43.601562 L 14.292969 21.90625 L 3.628906 32.695312 L 3.628906 43.601562 L 0.441406 43.601562 L 0.441406 0.703125 L 3.628906 0.703125 L 3.628906 28.894531 L 30.964844 0.703125 L 35.316406 0.703125 L 16.5625 19.640625 L 36.113281 43.601562 Z M 31.941406 43.601562 " clip-rule="nonzero"/></clipPath><clipPath id="99c33305a2"><rect x="0" width="37" y="0" height="44"/></clipPath><clipPath id="7671cebd74"><path d="M 287.832031 14.703125 L 318.351562 14.703125 L 318.351562 17.644531 L 287.832031 17.644531 Z M 287.832031 14.703125 " clip-rule="nonzero"/></clipPath><clipPath id="ce1ccad033"><path d="M 0.832031 0.703125 L 31.351562 0.703125 L 31.351562 3.644531 L 0.832031 3.644531 Z M 0.832031 0.703125 " clip-rule="nonzero"/></clipPath><clipPath id="9386561f7a"><rect x="0" width="32" y="0" height="4"/></clipPath><clipPath id="98438fbc89"><path d="M 287.832031 54.664062 L 318.351562 54.664062 L 318.351562 57.605469 L 287.832031 57.605469 Z M 287.832031 54.664062 " clip-rule="nonzero"/></clipPath><clipPath id="b4cbb79fcc"><path d="M 0.832031 0.664062 L 31.351562 0.664062 L 31.351562 3.605469 L 0.832031 3.605469 Z M 0.832031 0.664062 " clip-rule="nonzero"/></clipPath><clipPath id="ccab3a69d0"><rect x="0" width="32" y="0" height="4"/></clipPath><clipPath id="a1d2e71dbf"><path d="M 287.832031 34.527344 L 315.59375 34.527344 L 315.59375 37.472656 L 287.832031 37.472656 Z M 287.832031 34.527344 " clip-rule="nonzero"/></clipPath><clipPath id="c55eb8a442"><path d="M 0.832031 0.527344 L 28.59375 0.527344 L 28.59375 3.472656 L 0.832031 3.472656 Z M 0.832031 0.527344 " clip-rule="nonzero"/></clipPath><clipPath id="1d6f5f588c"><rect x="0" width="29" y="0" height="4"/></clipPath><clipPath id="e10cd1b77f"><path d="M 325.460938 14.703125 L 360 14.703125 L 360 57.6875 L 325.460938 57.6875 Z M 325.460938 14.703125 " clip-rule="nonzero"/></clipPath><clipPath id="f6fab3ee9f"><path d="M 355.613281 27.023438 C 355.613281 21.261719 351.082031 17.644531 343.296875 17.644531 L 328.648438 17.644531 L 328.648438 36.949219 L 343.113281 36.949219 C 350.28125 36.949219 355.613281 33.332031 355.613281 27.144531 Z M 356.351562 57.605469 L 342.683594 39.832031 L 328.648438 39.832031 L 328.648438 57.605469 L 325.460938 57.605469 L 325.460938 14.703125 L 343.480469 14.703125 C 352.734375 14.703125 358.804688 19.726562 358.804688 26.898438 L 358.804688 27.019531 C 358.804688 34.191406 353.46875 38.296875 346.238281 39.277344 L 360.394531 57.601562 Z M 356.351562 57.605469 " clip-rule="nonzero"/></clipPath><clipPath id="afda90aafc"><path d="M 0.460938 0.703125 L 35 0.703125 L 35 43.6875 L 0.460938 43.6875 Z M 0.460938 0.703125 " clip-rule="nonzero"/></clipPath><clipPath id="9ef3b7b821"><path d="M 30.613281 13.023438 C 30.613281 7.261719 26.082031 3.644531 18.296875 3.644531 L 3.648438 3.644531 L 3.648438 22.949219 L 18.113281 22.949219 C 25.28125 22.949219 30.613281 19.332031 30.613281 13.144531 Z M 31.351562 43.605469 L 17.683594 25.832031 L 3.648438 25.832031 L 3.648438 43.605469 L 0.460938 43.605469 L 0.460938 0.703125 L 18.480469 0.703125 C 27.734375 0.703125 33.804688 5.726562 33.804688 12.898438 L 33.804688 13.019531 C 33.804688 20.191406 28.46875 24.296875 21.238281 25.277344 L 35.394531 43.601562 Z M 31.351562 43.605469 " clip-rule="nonzero"/></clipPath><clipPath id="f0c188b457"><rect x="0" width="35" y="0" height="44"/></clipPath></defs><g clip-path="url(#7c0b23cfc1)"><g clip-path="url(#e4be994c55)"><g transform="matrix(1, 0, 0, 1, 0, 14)"><g clip-path="url(#18bcb5bebd)"><g clip-path="url(#c33c548838)"><g clip-path="url(#ff4680e086)"><rect x="-79.2" width="518.4" fill="#020404" height="103.68" y="-29.84" fill-opacity="1"/></g></g></g></g></g></g><g clip-path="url(#c3960f724e)"><g clip-path="url(#609f773e31)"><g transform="matrix(1, 0, 0, 1, 30, 14)"><g clip-path="url(#17c3d38996)"><g clip-path="url(#60f28eee43)"><g clip-path="url(#e9487f15b9)"><rect x="-109.2" width="518.4" fill="#020404" height="103.68" y="-29.84" fill-opacity="1"/></g></g></g></g></g></g><g clip-path="url(#869476781e)"><g transform="matrix(1, 0, 0, 1, 70, 14)"><g clip-path="url(#680b059c9e)"><g clip-path="url(#8277217e8f)"><rect x="-149.2" width="518.4" fill="#020404" height="103.68" y="-29.84" fill-opacity="1"/></g></g></g></g><g clip-path="url(#7967a9f306)"><g transform="matrix(1, 0, 0, 1, 109, 14)"><g clip-path="url(#8cc7ef44bd)"><g clip-path="url(#297cfdae12)"><path fill="#020404" d="M 0.542969 0.703125 L 34.375 0.703125 L 34.375 43.652344 L 0.542969 43.652344 Z M 0.542969 0.703125 " fill-opacity="1" fill-rule="nonzero"/></g></g></g></g><g clip-path="url(#4f78d3e51c)"><g clip-path="url(#3c3945a3be)"><g transform="matrix(1, 0, 0, 1, 152, 14)"><g clip-path="url(#f2c6a1bd18)"><g clip-path="url(#ebacd401ad)"><g clip-path="url(#07f5bb7515)"><path fill="#42a2d8" d="M 0.691406 0.703125 L 41.140625 0.703125 L 41.140625 43.679688 L 0.691406 43.679688 Z M 0.691406 0.703125 " fill-opacity="1" fill-rule="nonzero"/></g></g></g></g></g></g><g clip-path="url(#1d6dc958bc)"><g clip-path="url(#70340bc87a)"><g transform="matrix(1, 0, 0, 1, 198, 14)"><g clip-path="url(#20c50f6f21)"><g clip-path="url(#27c11846aa)"><g clip-path="url(#f84c851680)"><path fill="#42a2d8" d="M 0.777344 0.394531 L 43.804688 0.394531 L 43.804688 43.589844 L 0.777344 43.589844 Z M 0.777344 0.394531 " fill-opacity="1" fill-rule="nonzero"/></g></g></g></g></g></g><g clip-path="url(#e7e2168fa7)"><g clip-path="url(#9405aeea2a)"><g transform="matrix(1, 0, 0, 1, 247, 14)"><g clip-path="url(#99c33305a2)"><g clip-path="url(#e182e0ede8)"><g clip-path="url(#9f34ac7fac)"><path fill="#42a2d8" d="M 0.441406 0.703125 L 36.113281 0.703125 L 36.113281 43.621094 L 0.441406 43.621094 Z M 0.441406 0.703125 " fill-opacity="1" fill-rule="nonzero"/></g></g></g></g></g></g><g clip-path="url(#7671cebd74)"><g transform="matrix(1, 0, 0, 1, 287, 14)"><g clip-path="url(#9386561f7a)"><g clip-path="url(#ce1ccad033)"><path fill="#42a2d8" d="M 0.832031 0.703125 L 31.347656 0.703125 L 31.347656 3.644531 L 0.832031 3.644531 Z M 0.832031 0.703125 " fill-opacity="1" fill-rule="nonzero"/></g></g></g></g><g clip-path="url(#98438fbc89)"><g transform="matrix(1, 0, 0, 1, 287, 54)"><g clip-path="url(#ccab3a69d0)"><g clip-path="url(#b4cbb79fcc)"><path fill="#42a2d8" d="M 0.832031 0.664062 L 31.347656 0.664062 L 31.347656 3.605469 L 0.832031 3.605469 Z M 0.832031 0.664062 " fill-opacity="1" fill-rule="nonzero"/></g></g></g></g><g clip-path="url(#a1d2e71dbf)"><g transform="matrix(1, 0, 0, 1, 287, 34)"><g clip-path="url(#1d6f5f588c)"><g clip-path="url(#c55eb8a442)"><path fill="#42a2d8" d="M 0.832031 0.527344 L 28.589844 0.527344 L 28.589844 3.46875 L 0.832031 3.46875 Z M 0.832031 0.527344 " fill-opacity="1" fill-rule="nonzero"/></g></g></g></g><g clip-path="url(#e10cd1b77f)"><g clip-path="url(#f6fab3ee9f)"><g transform="matrix(1, 0, 0, 1, 325, 14)"><g clip-path="url(#f0c188b457)"><g clip-path="url(#afda90aafc)"><g clip-path="url(#9ef3b7b821)"><path fill="#42a2d8" d="M 0.460938 0.703125 L 35.394531 0.703125 L 35.394531 43.550781 L 0.460938 43.550781 Z M 0.460938 0.703125 " fill-opacity="1" fill-rule="nonzero"/></g></g></g></g></g></g></svg>