<?xml version="1.0" encoding="UTF-8"?><svg id="Layer_2" xmlns="http://www.w3.org/2000/svg" viewBox="0 0 283.9297 73.0889"><g id="Components"><g id="ac86bfbf-5a62-4b21-a982-e47e0696b4e9_4"><path d="M87.0273,49.812h7.6108v2.2383h-2.5742v13.4307h-2.4624v-13.4307h-2.5742v-2.2383Z" style="fill:#000; stroke-width:0px;"/><path d="M99.6118,65.481h-2.4624v-15.6689h2.4624v6.7148h2.7979v-6.7148h2.5073v15.6689h-2.5073v-6.7158h-2.7979v6.7158Z" style="fill:#000; stroke-width:0px;"/><path d="M110.3159,56.4155h3.3799v2.2383h-3.3799v4.5889h4.2529v2.2383h-6.7153v-15.6689h6.7153v2.2383h-4.2529v4.3652Z" style="fill:#000; stroke-width:0px;"/><path d="M122.2436,49.812h2.4624v13.4307h4.0513v2.2383h-6.5137v-15.6689Z" style="fill:#000; stroke-width:0px;"/><path d="M131.123,53.5728c0-2.5078,1.3208-3.9404,3.7383-3.9404s3.7383,1.4326,3.7383,3.9404v8.1475c0,2.5068-1.3208,3.9395-3.7383,3.9395s-3.7383-1.4326-3.7383-3.9395v-8.1475ZM133.5854,61.8775c0,1.1191.4927,1.5439,1.2759,1.5439.7837,0,1.2759-.4248,1.2759-1.5439v-8.4619c0-1.1191-.4922-1.5439-1.2759-1.5439-.7832,0-1.2759.4248-1.2759,1.5439v8.4619Z" style="fill:#000; stroke-width:0px;"/><path d="M141.2637,53.5728c0-2.5078,1.3208-3.9404,3.7383-3.9404s3.7383,1.4326,3.7383,3.9404v8.1475c0,2.5068-1.3208,3.9395-3.7383,3.9395s-3.7383-1.4326-3.7383-3.9395v-8.1475ZM143.7261,61.8775c0,1.1191.4927,1.5439,1.2759,1.5439.7837,0,1.2759-.4248,1.2759-1.5439v-8.4619c0-1.1191-.4922-1.5439-1.2759-1.5439-.7832,0-1.2759.4248-1.2759,1.5439v8.4619Z" style="fill:#000; stroke-width:0px;"/><path d="M158.8467,53.6841v2.0371c0,2.5068-1.209,3.873-3.6714,3.873h-1.1636v5.8867h-2.4624v-15.6689h3.626c2.4624,0,3.6714,1.3652,3.6714,3.8721ZM154.0117,52.0503v5.3047h1.1636c.7837,0,1.209-.3574,1.209-1.4766v-2.3506c0-1.1191-.4253-1.4775-1.209-1.4775h-1.1636Z" style="fill:#000; stroke-width:0px;"/><path d="M173.3931,59.6382v2.082c0,2.5068-1.2534,3.9395-3.6709,3.9395s-3.6714-1.4326-3.6714-3.9395v-8.1475c0-2.5078,1.2534-3.9404,3.6714-3.9404s3.6709,1.4326,3.6709,3.9404v1.5215h-2.3281v-1.6787c0-1.1191-.4922-1.5439-1.2759-1.5439-.7832,0-1.2759.4248-1.2759,1.5439v8.4619c0,1.1191.4927,1.5215,1.2759,1.5215.7837,0,1.2759-.4023,1.2759-1.5215v-2.2393h2.3281Z" style="fill:#000; stroke-width:0px;"/><path d="M184.1958,65.481h-2.4849l-.4253-2.8428h-3.0215l-.4258,2.8428h-2.2607l2.5073-15.6689h3.604l2.5068,15.6689ZM178.5771,60.5112h2.373l-1.1865-7.9238-1.1865,7.9238Z" style="fill:#000; stroke-width:0px;"/><path d="M191.9673,60.937l1.6792-11.125h3.4248v15.6689h-2.3281v-11.2373l-1.7012,11.2373h-2.3281l-1.8354-11.0801v11.0801h-2.1489v-15.6689h3.4248l1.813,11.125Z" style="fill:#000; stroke-width:0px;"/><path d="M207.3154,53.6841v2.0371c0,2.5068-1.209,3.873-3.6714,3.873h-1.1636v5.8867h-2.4624v-15.6689h3.626c2.4624,0,3.6714,1.3652,3.6714,3.8721ZM202.4805,52.0503v5.3047h1.1636c.7837,0,1.209-.3574,1.209-1.4766v-2.3506c0-1.1191-.4253-1.4775-1.209-1.4775h-1.1636Z" style="fill:#000; stroke-width:0px;"/><path d="M212.3203,49.812v12.0869c0,1.1201.4927,1.5225,1.2759,1.5225.7837,0,1.2764-.4023,1.2764-1.5225v-12.0869h2.3276v11.9307c0,2.5068-1.2534,3.9395-3.6709,3.9395s-3.6709-1.4326-3.6709-3.9395v-11.9307h2.4619Z" style="fill:#000; stroke-width:0px;"/><path d="M223.5151,49.6323c2.395,0,3.626,1.4326,3.626,3.9404v.4922h-2.3276v-.6494c0-1.1191-.4478-1.5439-1.2314-1.5439-.7832,0-1.231.4248-1.231,1.5439,0,3.2236,4.8125,3.8281,4.8125,8.3047,0,2.5068-1.2534,3.9395-3.6709,3.9395s-3.6714-1.4326-3.6714-3.9395v-.9629h2.3281v1.1201c0,1.1191.4927,1.5215,1.2759,1.5215.7837,0,1.2759-.4023,1.2759-1.5215,0-3.2236-4.8125-3.8281-4.8125-8.3047,0-2.5078,1.231-3.9404,3.6265-3.9404Z" style="fill:#000; stroke-width:0px;"/><path d="M.1824,40.1465c1.8674,18.8587,17.7527,32.9423,36.3194,32.9423h0c1.2034,0,2.4169-.0611,3.6402-.1798h0c18.8553-1.8719,32.9423-17.7566,32.9423-36.3208h0c0-1.2033-.0589-2.4203-.1767-3.6411h0C71.0359,14.0828,55.1477,0,36.5834,0h0c-1.2047,0-2.416.0598-3.6399.1816h0C14.0845,2.05,0,17.9355,0,36.4993h0c0,1.2051.0597,2.4212.181,3.6472h.0014ZM36.5018,71.0198c-17.5092,0-32.5038-13.2886-34.2627-31.0792l-1.0266.103,1.0266-.103h0c-.1117-1.1555-.1671-2.3051-.171-3.4413h0c0-17.5062,13.2882-32.4986,31.0774-34.2575h0c1.1564-.1161,2.3021-.1715,3.4379-.1715h0c17.5075,0,32.5034,13.2874,34.2614,31.0788h0c.113,1.1542.1719,2.303.1719,3.4391h0c0,17.5058-13.2921,32.4969-31.0775,34.2606h0c-1.1519.1143-2.3006.1693-3.4374.171h0Z" style="fill:#000; stroke-width:0px;"/><path d="M64.8061,49.2832c-.5328.3176-1.0995.5856-1.7007.7793-6.3049,2.0384-13.6765-3.7053-16.4634-12.8305-.7273-2.3867-1.0624-4.7638-1.0598-7.0166h4.6036s2.823-4.4945,2.823-4.4945h-6.9249c.9966-4.2699,3.4296-7.5685,6.9323-8.7007,2.9573-.9573,6.1452-.1842,8.99,1.8378,2.9242,4.1991,4.8514,9.1785,5.3907,14.6338.553,5.6032-.4254,11.0031-2.5908,15.7914ZM31.3379,10.2201c3.3759-3.1742,8.1095-4.3113,13.19-3.6381,6.0632,1.617,11.4517,5.0431,15.4895,9.7191-3.2864-2.3779-6.9899-3.2889-10.4216-2.1795-4.4456,1.4377-7.3835,5.9263-8.2399,11.5993h-4.444s-2.8234,4.4945-2.8234,4.4945h7.0348c.0846,2.275.4617,4.6408,1.1868,7.0166,2.2475,7.365,7.1116,12.7859,12.3125,14.5285-6.3392-.5619-13.3217-4.0132-18.9477-9.9927-9.8195-10.4415-11.7641-24.5667-4.3371-31.5478ZM61.0253,55.5548c-5.0347,6.4829-12.6133,10.9718-21.4278,11.8454-17.0419,1.685-32.2215-10.7598-33.9078-27.8007-.1074-1.0638-.1558-2.1219-.155-3.1686,2.8221,9.2518,12.2673,17.8953,25.0641,21.7281,11.4819,3.4407,22.8367,2.1571,30.4265-2.6041ZM6.5273,28.7454c3.0542-11.7515,12.8863-21.0111,25.4647-22.8671-2.0826.6832-3.9763,1.7645-5.5855,3.2754-8.0527,7.5694-5.944,22.8886,4.7036,34.2104,7.8508,8.345,18.151,12.1855,26.2487,10.5965-7.143,2.5586-16.0435,2.8169-25.0121.1291-14.2814-4.276-24.3595-14.6735-25.8194-25.3442Z" style="fill:#000; stroke-width:0px;"/><path d="M89.7642,23.8619v-6.195s6.71,0,6.71,0v6.4314s1.9463-.2364,1.9463-.2364v-13.9391s-1.9463.3187-1.9463.3187v5.6383s-6.71,0-6.71,0v-5.957s-1.9457.3187-1.9457.3187v13.8568s1.9457-.2364,1.9457-.2364Z" style="fill:#000; stroke-width:0px;"/><path d="M103.8848,17.0506c0,4.0102,3.2163,7.1265,7.1477,7.1265,3.9321,0,7.1479-3.1163,7.1479-7.1265,0-4.0112-3.2159-7.1278-7.1479-7.1278s-7.1477,3.1166-7.1477,7.1278ZM105.8314,17.0506c0-2.8398,2.3415-5.3402,5.2012-5.3402,2.8593,0,5.2027,2.5003,5.2027,5.3402,0,2.8394-2.3433,5.3415-5.2027,5.3415-2.8597,0-5.2012-2.5021-5.2012-5.3415Z" style="fill:#000; stroke-width:0px;"/><path d="M131.2697,10.2415v9.3904c0,2.0057-1.3303,2.7602-2.9987,2.7602-1.7275,0-2.7403-1.0134-2.7403-2.7602v-9.7091s-1.9447.3187-1.9447.3187v8.3577c0,3.9102,1.0915,5.5779,4.8445,5.5779,3.4345,0,4.7858-1.3875,4.7858-5.5779v-8.6765s-1.9465.3187-1.9465.3187Z" style="fill:#000; stroke-width:0px;"/><path d="M138.7376,21.9752c1.2315,1.3109,2.3639,2.2019,4.2313,2.2019,2.3612,0,4.2266-1.7275,4.2266-4.1482,0-4.7062-6.2321-3.434-6.2321-6.2331,0-1.2902.8922-2.0854,2.1433-2.0854,1.1318,0,1.8864.7337,2.6204,1.5091l1.3107-1.3101c-.8933-1.192-2.3222-1.9866-3.8318-1.9866-2.4626,0-4.1902,1.4703-4.1902,3.873,0,4.7837,6.2354,3.0561,6.2354,6.2144,0,1.6872-1.0532,2.3818-2.4821,2.3818-1.0917,0-2.0453-.7347-2.6003-1.608l-1.431,1.1912Z" style="fill:#000; stroke-width:0px;"/><path d="M154.9831,12.0283v12.0699s1.945-.2364,1.945-.2364v-11.8335s3.1775,0,3.1775,0v-1.7869h-8.0409s-.6163,1.7869-.6163,1.7869h3.5347Z" style="fill:#000; stroke-width:0px;"/><path d="M164.5157,17.0506c0,4.0102,3.2171,7.1265,7.1482,7.1265,3.9316,0,7.1471-3.1163,7.1471-7.1265,0-4.0112-3.2156-7.1278-7.1471-7.1278-3.931,0-7.1482,3.1166-7.1482,7.1278ZM166.4623,17.0506c0-2.8398,2.3417-5.3402,5.2016-5.3402s5.2021,2.5003,5.2021,5.3402c0,2.8394-2.3428,5.3415-5.2021,5.3415s-5.2016-2.5021-5.2016-5.3415Z" style="fill:#000; stroke-width:0px;"/><path d="M186.1834,23.8619v-9.2126s8.7353,9.5279,8.7353,9.5279h.0375v-13.9356s-1.9439.3168-1.9439.3168v8.8963s-8.7364-9.5318-8.7364-9.5318h-.0395v14.1755s1.947-.2364,1.947-.2364Z" style="fill:#000; stroke-width:0px;"/><path d="M200.3821,15.3444c.4955-.6569,1.8875-2.3631,1.8875-3.1784,0-1.0706-.715-1.6481-1.5704-2.2433l-1.191,1.4901c.5166.258.9736.4366.9736,1.0928s-.8538,1.6452-1.1308,2.0824l1.031.7564Z" style="fill:#000; stroke-width:0px;"/><path d="M206.0818,21.9752c1.2315,1.3109,2.3629,2.2019,4.2287,2.2019,2.3634,0,4.2302-1.7275,4.2302-4.1482,0-4.7062-6.2348-3.434-6.2348-6.2331,0-1.2902.8939-2.0854,2.1444-2.0854,1.1308,0,1.8875.7337,2.6188,1.5091l1.3128-1.3101c-.8943-1.192-2.3222-1.9866-3.8314-1.9866-2.4636,0-4.1916,1.4703-4.1916,3.873,0,4.7837,6.2337,3.0561,6.2337,6.2144,0,1.6872-1.0505,2.3818-2.4799,2.3818-1.0923,0-2.0457-.7347-2.6014-1.608l-1.4294,1.1912Z" style="fill:#000; stroke-width:0px;"/><path d="M231.2632,23.8619v-6.195s4.1701,0,4.1701,0v-1.7871h-4.1701s0-3.8514,0-3.8514h5.4201s-.3366-1.7869-.3366-1.7869h-7.029v13.8568s1.9455-.2364,1.9455-.2364Z" style="fill:#000; stroke-width:0px;"/><path d="M243.5571,23.8619v-13.9391s-1.9455.3187-1.9455.3187v13.7803s1.9455-.1599,1.9455-.1599Z" style="fill:#000; stroke-width:0px;"/><path d="M251.4418,23.8619v-6.6123s.0406,0,.0406,0l4.7426,6.9276,2.1845-.5543-4.1104-5.6984c1.8668-.4174,3.0208-1.5288,3.0208-3.5538,0-3.0992-2.4435-4.1292-4.4692-4.1292h-3.3559v13.8568s1.947-.2364,1.947-.2364ZM251.4418,12.0283h1.3888c1.5091,0,2.5412.7326,2.5412,2.3423,0,1.4882-1.2126,2.4412-2.5412,2.4412h-1.3888s0-4.7835,0-4.7835Z" style="fill:#000; stroke-width:0px;"/><path d="M262.5632,21.9752c1.231,1.3109,2.3623,2.2019,4.2281,2.2019,2.3629,0,4.2302-1.7275,4.2302-4.1482,0-4.7062-6.2364-3.434-6.2364-6.2331,0-1.2902.895-2.0854,2.145-2.0854,1.1313,0,1.888.7337,2.6204,1.5091l1.3118-1.3101c-.8944-1.192-2.3222-1.9866-3.8329-1.9866-2.4615,0-4.188,1.4703-4.188,3.873,0,4.7837,6.2338,3.0561,6.2338,6.2144,0,1.6872-1.0522,2.3818-2.4816,2.3818-1.0928,0-2.0452-.7347-2.6009-1.608l-1.4294,1.1912Z" style="fill:#000; stroke-width:0px;"/><path d="M278.8092,12.0283v12.0699s1.9439-.2364,1.9439-.2364v-11.8335s3.1765,0,3.1765,0v-1.7869h-8.0405s-.6137,1.7869-.6137,1.7869h3.5337Z" style="fill:#000; stroke-width:0px;"/><path d="M87.8046,30.423v6.5372h1.6391c1.3912,0,2.0579-.6385,2.0579-1.7724,0-.791-.3335-1.2579-1.0482-1.611.553-.2754.8579-.7429.8579-1.4384,0-1.191-.734-1.7154-1.8488-1.7154h-1.6579ZM88.3955,31.014h1.1432c.6574,0,1.1817.401,1.1817,1.1344s-.4766,1.2005-1.4295,1.2005h-.8954s0-2.3349,0-2.3349ZM88.3955,33.9393h1.1909c.8195,0,1.2672.5245,1.2672,1.2485,0,.6289-.2857,1.1819-1.4576,1.1819h-1.0005s0-2.4304,0-2.4304Z" style="fill:#000; stroke-width:0px;"/><path d="M103.1974,34.3872l1.3428,2.7059.572-.1329-3.325-6.6891h-.0193l-3.3255,6.6891.6289.1524,1.3247-2.7254h2.8013ZM102.8639,33.7963h-2.1821s1.0957-2.1813,1.0957-2.1813l1.0865,2.1813Z" style="fill:#000; stroke-width:0px;"/><path d="M112.835,34.7682h.448c1.5154,0,2.3729-.7714,2.3729-2.1723s-.8575-2.1729-2.1819-2.1729h-1.2294v6.6131s.5904-.0759.5904-.0759v-2.192ZM112.835,31.014h.7335c.8674,0,1.4395.61,1.4395,1.5819s-.572,1.5819-1.6295,1.5819h-.5435s0-3.1638,0-3.1638Z" style="fill:#000; stroke-width:0px;"/><path d="M124.9411,31.014h1.7244v-.591h-3.9928s-.1329.591-.1329.591h1.8098s0,6.0222,0,6.0222l.5916-.0759v-5.9462Z" style="fill:#000; stroke-width:0px;"/><path d="M134.1961,37.0361l.591-.0759v-6.6891s-.591.152-.591.152v6.6131Z" style="fill:#000; stroke-width:0px;"/><path d="M142.5463,35.9692c.4575.7809,1.1814,1.1434,2.0678,1.1434,1.153,0,2.049-.7535,2.049-1.9439,0-2.3153-3.3538-1.4579-3.3538-3.0873,0-.8289.6384-1.22,1.4005-1.22.5714,0,.9529.2671,1.3624.629l.3625-.438c-.429-.477-1.077-.7814-1.7249-.7814-1.1145,0-2.0489.6575-2.0489,1.8489,0,2.2768,3.3538,1.2764,3.3538,3.1064,0,.8289-.5905,1.2954-1.3904,1.2954-.7435,0-1.2194-.2955-1.6204-.9144l-.4575.3619Z" style="fill:#000; stroke-width:0px;"/><path d="M156.0722,31.014h1.7244v-.591h-3.9928s-.1334.591-.1334.591h1.8103s0,6.0222,0,6.0222l.5916-.0759v-5.9462Z" style="fill:#000; stroke-width:0px;"/><path d="M178.5182,36.0831c-.266.2101-.752.4385-1.3624.4385-1.506,0-2.6394-1.2674-2.6394-2.8299,0-1.5629,1.1334-2.8303,2.6394-2.8303.5624,0,1.0965.229,1.3624.4385l-.086-.7244c-.3704-.171-.8185-.3045-1.2289-.3045-1.7809,0-3.3343,1.4769-3.3343,3.4207,0,1.9439,1.5534,3.4208,3.3343,3.4208.4105,0,.8585-.1335,1.2289-.305l.086-.7245Z" style="fill:#000; stroke-width:0px;"/><path d="M186.8884,36.9602v-3.0209s3.7548,0,3.7548,0v3.0968s.5905-.0759.5905-.0759v-6.6891s-.5905.152-.5905.152v2.9258s-3.7548,0-3.7548,0v-3.0778s-.5905.152-.5905.152v6.6131s.5905-.0759.5905-.0759Z" style="fill:#000; stroke-width:0px;"/><path d="M203.8256,30.271l-.5905.152v4.3078c0,.9424-.6295,1.7909-1.6954,1.7909-1.1535,0-1.6965-.9144-1.6965-1.6099v-4.6407s-.5904.152-.5904.152v4.4692c0,1.3909.8859,2.2204,2.2869,2.2204,1.3998,0,2.2858-.8295,2.2858-2.2204v-4.6212Z" style="fill:#000; stroke-width:0px;"/><path d="M212.3583,36.9602v-3.1159s.0375,0,.0375,0l2.4393,3.1918.601-.3145-2.0009-2.5153c.9719-.1715,1.5535-.886,1.5535-1.8674,0-1.1434-.82-1.9159-1.907-1.9159h-1.3138v6.6131s.5904-.0759.5904-.0759ZM212.3583,31.014h.8295c.6949,0,1.1519.6859,1.1519,1.3249,0,.81-.3814,1.3909-1.1624,1.3909h-.8189s0-2.7158,0-2.7158Z" style="fill:#000; stroke-width:0px;"/><path d="M226.9227,36.0831c-.2675.2101-.7535.4385-1.363.4385-1.5054,0-2.6393-1.2674-2.6393-2.8299,0-1.5629,1.1339-2.8303,2.6393-2.8303.5614,0,1.0954.229,1.363.4385l-.0866-.7244c-.372-.171-.8194-.3045-1.2289-.3045-1.7825,0-3.3353,1.4769-3.3353,3.4207,0,1.9439,1.5528,3.4208,3.3353,3.4208.4095,0,.8569-.1335,1.2289-.305l.0866-.7245Z" style="fill:#000; stroke-width:0px;"/><path d="M235.2929,36.9602v-3.0209s3.7543,0,3.7543,0v3.0968s.5905-.0759.5905-.0759v-6.6891s-.5905.152-.5905.152v2.9258s-3.7543,0-3.7543,0v-3.0778s-.591.152-.591.152v6.6131s.591-.0759.591-.0759Z" style="fill:#000; stroke-width:0px;"/><rect x="88.3164" y="42.6431" width="151.3213" height=".5088" style="fill:#000; stroke-width:0px;"/></g></g></svg>