<svg xmlns="http://www.w3.org/2000/svg" xmlns:xlink="http://www.w3.org/1999/xlink" width="300" zoomAndPan="magnify" viewBox="0 0 224.87999 225" height="300" preserveAspectRatio="xMidYMid meet" version="1.0"><defs><clipPath id="0f9b090571"><path d="M 4.164062 4.222656 L 220.703125 4.222656 L 220.703125 221 L 4.164062 221 Z M 4.164062 4.222656 " clip-rule="nonzero"/></clipPath><clipPath id="7619a4802d"><path d="M 112.3125 214.640625 C 115.683594 214.632812 119.085938 214.472656 122.496094 214.132812 C 175.191406 208.902344 214.570312 164.496094 214.570312 112.625 C 214.570312 109.253906 214.398438 105.855469 214.0625 102.433594 C 208.851562 49.730469 164.425781 10.367188 112.554688 10.367188 C 109.1875 10.367188 105.792969 10.53125 102.367188 10.875 C 49.660156 16.085938 10.296875 60.503906 10.296875 112.367188 C 10.304688 115.734375 10.472656 119.136719 10.804688 122.5625 L 7.761719 122.871094 L 10.804688 122.5625 C 16.015625 175.269531 60.441406 214.640625 112.3125 214.640625 M 4.710938 123.171875 L 4.703125 123.171875 C 4.34375 119.535156 4.167969 115.933594 4.167969 112.367188 C 4.167969 57.367188 45.902344 10.300781 101.773438 4.769531 C 105.402344 4.414062 108.988281 4.230469 112.554688 4.230469 C 167.554688 4.230469 214.628906 45.953125 220.175781 101.84375 C 220.527344 105.460938 220.699219 109.0625 220.699219 112.632812 C 220.699219 167.628906 178.96875 214.699219 123.101562 220.242188 C 119.476562 220.59375 115.882812 220.777344 112.324219 220.777344 C 57.316406 220.777344 10.246094 179.054688 4.71875 123.179688 " clip-rule="nonzero"/></clipPath><clipPath id="ee6c01db3e"><path d="M 0.164062 0.222656 L 216.703125 0.222656 L 216.703125 216.980469 L 0.164062 216.980469 Z M 0.164062 0.222656 " clip-rule="nonzero"/></clipPath><clipPath id="765f79272b"><path d="M 108.3125 210.640625 C 111.683594 210.632812 115.085938 210.472656 118.496094 210.132812 C 171.191406 204.902344 210.570312 160.496094 210.570312 108.625 C 210.570312 105.253906 210.398438 101.855469 210.0625 98.433594 C 204.851562 45.730469 160.425781 6.367188 108.554688 6.367188 C 105.1875 6.367188 101.792969 6.53125 98.367188 6.875 C 45.660156 12.085938 6.296875 56.503906 6.296875 108.367188 C 6.304688 111.734375 6.472656 115.136719 6.804688 118.5625 L 3.761719 118.871094 L 6.804688 118.5625 C 12.015625 171.269531 56.441406 210.640625 108.3125 210.640625 M 0.710938 119.171875 L 0.703125 119.171875 C 0.34375 115.535156 0.167969 111.933594 0.167969 108.367188 C 0.167969 53.367188 41.902344 6.300781 97.773438 0.769531 C 101.402344 0.414062 104.988281 0.230469 108.554688 0.230469 C 163.554688 0.230469 210.628906 41.953125 216.175781 97.84375 C 216.527344 101.460938 216.699219 105.0625 216.699219 108.632812 C 216.699219 163.628906 174.96875 210.699219 119.101562 216.242188 C 115.476562 216.59375 111.882812 216.777344 108.324219 216.777344 C 53.316406 216.777344 6.246094 175.054688 0.71875 119.179688 " clip-rule="nonzero"/></clipPath><clipPath id="5e9e63921f"><rect x="0" width="217" y="0" height="217"/></clipPath><clipPath id="4f474e2e9c"><path d="M 20 21 L 204.878906 21 L 204.878906 204.9375 L 20 204.9375 Z M 20 21 " clip-rule="nonzero"/></clipPath><clipPath id="59797f140e"><path d="M 100.007812 164.480469 C 126.582031 172.441406 152.945312 171.675781 174.109375 164.09375 C 150.117188 168.804688 119.601562 157.425781 96.339844 132.703125 C 64.796875 99.15625 58.550781 53.773438 82.40625 31.351562 C 87.175781 26.875 92.785156 23.671875 98.957031 21.648438 C 61.695312 27.140625 32.558594 54.582031 23.511719 89.394531 C 27.839844 121.011719 57.699219 151.8125 100.007812 164.480469 M 94.828125 176.535156 C 56.914062 165.179688 28.933594 139.574219 20.570312 112.15625 C 20.570312 115.257812 20.710938 118.394531 21.027344 121.546875 C 26.023438 172.03125 71 208.902344 121.484375 203.910156 C 147.601562 201.316406 170.054688 188.015625 184.972656 168.816406 C 162.484375 182.921875 128.847656 186.726562 94.828125 176.527344 M 109.871094 127.964844 C 126.539062 145.683594 147.226562 155.90625 166.011719 157.574219 C 150.601562 152.414062 136.195312 136.355469 129.53125 114.535156 C 127.382812 107.496094 126.261719 100.484375 126.011719 93.746094 L 105.167969 93.746094 L 113.53125 80.429688 L 126.695312 80.429688 C 129.230469 63.621094 137.9375 50.320312 151.109375 46.070312 C 161.273438 42.785156 172.25 45.484375 181.988281 52.523438 C 170.023438 38.671875 154.0625 28.519531 136.09375 23.730469 C 121.042969 21.738281 107.019531 25.109375 97.011719 34.511719 C 75.007812 55.199219 80.769531 97.046875 109.863281 127.984375 M 203.847656 103.453125 C 202.25 87.292969 196.546875 72.535156 187.882812 60.09375 C 179.453125 54.097656 170.011719 51.816406 161.25 54.648438 C 150.871094 58 143.664062 67.773438 140.714844 80.421875 L 161.234375 80.421875 L 152.871094 93.738281 L 139.210938 93.738281 C 139.203125 100.417969 140.195312 107.453125 142.355469 114.523438 C 150.609375 141.558594 172.457031 158.574219 191.132812 152.539062 C 192.917969 151.964844 194.59375 151.171875 196.171875 150.230469 C 202.582031 136.046875 205.484375 120.046875 203.839844 103.445312 " clip-rule="nonzero"/></clipPath><clipPath id="4c09ff2c6c"><path d="M 0.390625 0.410156 L 184.878906 0.410156 L 184.878906 183.9375 L 0.390625 183.9375 Z M 0.390625 0.410156 " clip-rule="nonzero"/></clipPath><clipPath id="d375766b45"><path d="M 80.007812 143.480469 C 106.582031 151.441406 132.945312 150.675781 154.109375 143.09375 C 130.117188 147.804688 99.601562 136.425781 76.339844 111.703125 C 44.796875 78.15625 38.550781 32.773438 62.40625 10.351562 C 67.175781 5.875 72.785156 2.671875 78.957031 0.648438 C 41.695312 6.140625 12.558594 33.582031 3.511719 68.394531 C 7.839844 100.011719 37.699219 130.8125 80.007812 143.480469 M 74.828125 155.535156 C 36.914062 144.179688 8.933594 118.574219 0.570312 91.15625 C 0.570312 94.257812 0.710938 97.394531 1.027344 100.546875 C 6.023438 151.03125 51 187.902344 101.484375 182.910156 C 127.601562 180.316406 150.054688 167.015625 164.972656 147.816406 C 142.484375 161.921875 108.847656 165.726562 74.828125 155.527344 M 89.871094 106.964844 C 106.539062 124.683594 127.226562 134.90625 146.011719 136.574219 C 130.601562 131.414062 116.195312 115.355469 109.53125 93.535156 C 107.382812 86.496094 106.261719 79.484375 106.011719 72.746094 L 85.167969 72.746094 L 93.53125 59.429688 L 106.695312 59.429688 C 109.230469 42.621094 117.9375 29.320312 131.109375 25.070312 C 141.273438 21.785156 152.25 24.484375 161.988281 31.523438 C 150.023438 17.671875 134.0625 7.519531 116.09375 2.730469 C 101.042969 0.738281 87.019531 4.109375 77.011719 13.511719 C 55.007812 34.199219 60.769531 76.046875 89.863281 106.984375 M 183.847656 82.453125 C 182.25 66.292969 176.546875 51.535156 167.882812 39.09375 C 159.453125 33.097656 150.011719 30.816406 141.25 33.648438 C 130.871094 37 123.664062 46.773438 120.714844 59.421875 L 141.234375 59.421875 L 132.871094 72.738281 L 119.210938 72.738281 C 119.203125 79.417969 120.195312 86.453125 122.355469 93.523438 C 130.609375 120.558594 152.457031 137.574219 171.132812 131.539062 C 172.917969 130.964844 174.59375 130.171875 176.171875 129.230469 C 182.582031 115.046875 185.484375 99.046875 183.839844 82.445312 " clip-rule="nonzero"/></clipPath><clipPath id="65aaf7afc1"><rect x="0" width="185" y="0" height="184"/></clipPath></defs><g clip-path="url(#0f9b090571)"><g clip-path="url(#7619a4802d)"><g transform="matrix(1, 0, 0, 1, 4, 4)"><g clip-path="url(#5e9e63921f)"><g clip-path="url(#ee6c01db3e)"><g clip-path="url(#765f79272b)"><rect x="-53.473598" width="323.827186" fill="#090f10" height="324" y="-53.5" fill-opacity="1"/></g></g></g></g></g></g><g clip-path="url(#4f474e2e9c)"><g clip-path="url(#59797f140e)"><g transform="matrix(1, 0, 0, 1, 20, 21)"><g clip-path="url(#65aaf7afc1)"><g clip-path="url(#4c09ff2c6c)"><g clip-path="url(#d375766b45)"><rect x="-69.473598" width="323.827186" fill="#090f10" height="324" y="-70.5" fill-opacity="1"/></g></g></g></g></g></g></svg>