<svg xmlns="http://www.w3.org/2000/svg" xmlns:xlink="http://www.w3.org/1999/xlink" width="300" zoomAndPan="magnify" viewBox="0 0 224.87999 225" height="300" preserveAspectRatio="xMidYMid meet" version="1.0"><defs><clipPath id="56d9bd7aab"><path d="M 4.179688 4.222656 L 220.714844 4.222656 L 220.714844 221 L 4.179688 221 Z M 4.179688 4.222656 " clip-rule="nonzero"/></clipPath><clipPath id="7d8a139a4c"><path d="M 112.328125 214.640625 C 115.695312 214.632812 119.097656 214.472656 122.507812 214.132812 C 175.207031 208.902344 214.585938 164.496094 214.585938 112.625 C 214.585938 109.253906 214.410156 105.855469 214.078125 102.433594 C 208.867188 49.730469 164.441406 10.367188 112.570312 10.367188 C 109.203125 10.367188 105.808594 10.53125 102.382812 10.875 C 49.675781 16.085938 10.3125 60.503906 10.3125 112.367188 C 10.320312 115.734375 10.488281 119.136719 10.820312 122.5625 L 7.777344 122.871094 L 10.820312 122.5625 C 16.03125 175.269531 60.457031 214.640625 112.328125 214.640625 M 4.726562 123.171875 L 4.71875 123.171875 C 4.359375 119.535156 4.183594 115.933594 4.183594 112.367188 C 4.183594 57.367188 45.914062 10.300781 101.789062 4.769531 C 105.417969 4.414062 109 4.230469 112.570312 4.230469 C 167.566406 4.230469 214.644531 45.953125 220.191406 101.84375 C 220.539062 105.460938 220.714844 109.0625 220.714844 112.632812 C 220.714844 167.628906 178.984375 214.699219 123.117188 220.242188 C 119.492188 220.59375 115.898438 220.777344 112.335938 220.777344 C 57.332031 220.777344 10.261719 179.054688 4.734375 123.179688 " clip-rule="nonzero"/></clipPath><clipPath id="1c0a083db8"><path d="M 0.179688 0.222656 L 216.714844 0.222656 L 216.714844 216.980469 L 0.179688 216.980469 Z M 0.179688 0.222656 " clip-rule="nonzero"/></clipPath><clipPath id="e7a2a73882"><path d="M 108.328125 210.640625 C 111.695312 210.632812 115.097656 210.472656 118.507812 210.132812 C 171.207031 204.902344 210.585938 160.496094 210.585938 108.625 C 210.585938 105.253906 210.410156 101.855469 210.078125 98.433594 C 204.867188 45.730469 160.441406 6.367188 108.570312 6.367188 C 105.203125 6.367188 101.808594 6.53125 98.382812 6.875 C 45.675781 12.085938 6.3125 56.503906 6.3125 108.367188 C 6.320312 111.734375 6.488281 115.136719 6.820312 118.5625 L 3.777344 118.871094 L 6.820312 118.5625 C 12.03125 171.269531 56.457031 210.640625 108.328125 210.640625 M 0.726562 119.171875 L 0.71875 119.171875 C 0.359375 115.535156 0.183594 111.933594 0.183594 108.367188 C 0.183594 53.367188 41.914062 6.300781 97.789062 0.769531 C 101.417969 0.414062 105 0.230469 108.570312 0.230469 C 163.566406 0.230469 210.644531 41.953125 216.191406 97.84375 C 216.539062 101.460938 216.714844 105.0625 216.714844 108.632812 C 216.714844 163.628906 174.984375 210.699219 119.117188 216.242188 C 115.492188 216.59375 111.898438 216.777344 108.335938 216.777344 C 53.332031 216.777344 6.261719 175.054688 0.734375 119.179688 " clip-rule="nonzero"/></clipPath><clipPath id="dd80145330"><rect x="0" width="217" y="0" height="217"/></clipPath><clipPath id="f1da560465"><path d="M 20.003906 21 L 204.890625 21 L 204.890625 204.9375 L 20.003906 204.9375 Z M 20.003906 21 " clip-rule="nonzero"/></clipPath><clipPath id="b55953ea54"><path d="M 100.019531 164.480469 C 126.59375 172.441406 152.960938 171.675781 174.121094 164.09375 C 150.132812 168.804688 119.617188 157.425781 96.351562 132.703125 C 64.808594 99.15625 58.5625 53.773438 82.417969 31.351562 C 87.1875 26.875 92.800781 23.671875 98.972656 21.648438 C 61.707031 27.140625 32.574219 54.582031 23.527344 89.394531 C 27.855469 121.011719 57.714844 151.8125 100.019531 164.480469 M 94.84375 176.535156 C 56.929688 165.179688 28.949219 139.574219 20.585938 112.15625 C 20.585938 115.257812 20.726562 118.394531 21.042969 121.546875 C 26.039062 172.03125 71.011719 208.902344 121.5 203.910156 C 147.613281 201.316406 170.070312 188.015625 184.988281 168.816406 C 162.5 182.921875 128.863281 186.726562 94.84375 176.527344 M 109.886719 127.964844 C 126.554688 145.683594 147.238281 155.90625 166.027344 157.574219 C 150.617188 152.414062 136.207031 136.355469 129.546875 114.535156 C 127.394531 107.496094 126.277344 100.484375 126.027344 93.746094 L 105.183594 93.746094 L 113.546875 80.429688 L 126.710938 80.429688 C 129.246094 63.621094 137.953125 50.320312 151.125 46.070312 C 161.289062 42.785156 172.261719 45.484375 182 52.523438 C 170.035156 38.671875 154.078125 28.519531 136.109375 23.730469 C 121.058594 21.738281 107.035156 25.109375 97.027344 34.511719 C 75.023438 55.199219 80.785156 97.046875 109.878906 127.984375 M 203.863281 103.453125 C 202.261719 87.292969 196.558594 72.535156 187.894531 60.09375 C 179.464844 54.097656 170.027344 51.816406 161.265625 54.648438 C 150.882812 58 143.679688 67.773438 140.726562 80.421875 L 161.246094 80.421875 L 152.886719 93.738281 L 139.226562 93.738281 C 139.21875 100.417969 140.210938 107.453125 142.371094 114.523438 C 150.625 141.558594 172.472656 158.574219 191.148438 152.539062 C 192.933594 151.964844 194.609375 151.171875 196.183594 150.230469 C 202.597656 136.046875 205.5 120.046875 203.855469 103.445312 " clip-rule="nonzero"/></clipPath><clipPath id="bd1d48d737"><path d="M 0.390625 0.410156 L 184.890625 0.410156 L 184.890625 183.9375 L 0.390625 183.9375 Z M 0.390625 0.410156 " clip-rule="nonzero"/></clipPath><clipPath id="e82991d102"><path d="M 80.019531 143.480469 C 106.59375 151.441406 132.960938 150.675781 154.121094 143.09375 C 130.132812 147.804688 99.617188 136.425781 76.351562 111.703125 C 44.808594 78.15625 38.5625 32.773438 62.417969 10.351562 C 67.1875 5.875 72.800781 2.671875 78.972656 0.648438 C 41.707031 6.140625 12.574219 33.582031 3.527344 68.394531 C 7.855469 100.011719 37.714844 130.8125 80.019531 143.480469 M 74.84375 155.535156 C 36.929688 144.179688 8.949219 118.574219 0.585938 91.15625 C 0.585938 94.257812 0.726562 97.394531 1.042969 100.546875 C 6.039062 151.03125 51.011719 187.902344 101.5 182.910156 C 127.613281 180.316406 150.070312 167.015625 164.988281 147.816406 C 142.5 161.921875 108.863281 165.726562 74.84375 155.527344 M 89.886719 106.964844 C 106.554688 124.683594 127.238281 134.90625 146.027344 136.574219 C 130.617188 131.414062 116.207031 115.355469 109.546875 93.535156 C 107.394531 86.496094 106.277344 79.484375 106.027344 72.746094 L 85.183594 72.746094 L 93.546875 59.429688 L 106.710938 59.429688 C 109.246094 42.621094 117.953125 29.320312 131.125 25.070312 C 141.289062 21.785156 152.261719 24.484375 162 31.523438 C 150.035156 17.671875 134.078125 7.519531 116.109375 2.730469 C 101.058594 0.738281 87.035156 4.109375 77.027344 13.511719 C 55.023438 34.199219 60.785156 76.046875 89.878906 106.984375 M 183.863281 82.453125 C 182.261719 66.292969 176.558594 51.535156 167.894531 39.09375 C 159.464844 33.097656 150.027344 30.816406 141.265625 33.648438 C 130.882812 37 123.679688 46.773438 120.726562 59.421875 L 141.246094 59.421875 L 132.886719 72.738281 L 119.226562 72.738281 C 119.21875 79.417969 120.210938 86.453125 122.371094 93.523438 C 130.625 120.558594 152.472656 137.574219 171.148438 131.539062 C 172.933594 130.964844 174.609375 130.171875 176.183594 129.230469 C 182.597656 115.046875 185.5 99.046875 183.855469 82.445312 " clip-rule="nonzero"/></clipPath><clipPath id="acd89d0039"><rect x="0" width="185" y="0" height="184"/></clipPath></defs><g clip-path="url(#56d9bd7aab)"><g clip-path="url(#7d8a139a4c)"><g transform="matrix(1, 0, 0, 1, 4, 4)"><g clip-path="url(#dd80145330)"><g clip-path="url(#1c0a083db8)"><g clip-path="url(#e7a2a73882)"><rect x="-53.473598" width="323.827186" fill="#ffffff" height="324" y="-53.5" fill-opacity="1"/></g></g></g></g></g></g><g clip-path="url(#f1da560465)"><g clip-path="url(#b55953ea54)"><g transform="matrix(1, 0, 0, 1, 20, 21)"><g clip-path="url(#acd89d0039)"><g clip-path="url(#bd1d48d737)"><g clip-path="url(#e82991d102)"><rect x="-69.473598" width="323.827186" fill="#ffffff" height="324" y="-70.5" fill-opacity="1"/></g></g></g></g></g></g></svg>